{
  "accessors": [
    {
      "bufferView": 0,
      "componentType": 5126,
      "count": 1788,
      "max": [
        4.5,
        4.5,
        6.699999809265137
      ],
      "min": [
        -4.5,
        -4.5,
        0.0
      ],
      "type": "VEC3"
    },
    {
      "bufferView": 0,
      "byteOffset": 12,
      "componentType": 5126,
      "count": 1788,
      "type": "VEC3"
    },
    {
      "bufferView": 1,
      "componentType": 5125,
      "count": 5112,
      "type": "SCALAR"
    }
  ],
  "asset": {
    "version": "2.0"
  },
  "bufferViews": [
    {
      "buffer": 0,
      "byteLength": 57216,
      "byteStride": 32,
      "target": 34962
    },
    {
      "buffer": 0,
      "byteLength": 20448,
      "byteOffset": 57216,
      "target": 34963
    }
  ],
  "buffers": [
    {
      "byteLength": 77664,
      "uri": "base.bin"
    }
  ],
  "materials": [
    {
      "doubleSided": true,
      "name": "XID_Generic_188113C21F4E45C0ADB9FEAF5A2FDEBF_shader",
      "pbrMetallicRoughness": {
        "baseColorFactor": [
          1.0,
          0.0,
          0.0,
          1.0
        ],
        "metallicFactor": 0.0,
        "roughnessFactor": 0.5
      }
    }
  ],
  "meshes": [
    {
      "name": "Solid1",
      "primitives": [
        {
          "attributes": {
            "NORMAL": 1,
            "POSITION": 0
          },
          "indices": 2,
          "material": 0,
          "mode": 4
        }
      ]
    }
  ],
  "nodes": [
    {
      "matrix": [
        0.0,
        0.0,
        -0.009999999999999998,
        0.0,
        -0.009999999999999998,
        0.0,
        0.0,
        0.0,
        0.0,
        0.009999999999999998,
        0.0,
        0.0,
        0.0,
        0.0,
        0.0,
        1.0
      ],
      "mesh": 0,
      "name": "Solid1"
    }
  ],
  "scenes": [
    {
      "nodes": [
        0
      ]
    }
  ]
}
