{
  "accessors": [
    {
      "bufferView": 0,
      "componentType": 5126,
      "count": 2224,
      "max": [
        14.399999618530273,
        3.200000047683716,
        3.5999999046325684
      ],
      "min": [
        -1.7999999523162842,
        -3.200000047683716,
        0.0
      ],
      "type": "VEC3"
    },
    {
      "bufferView": 0,
      "byteOffset": 12,
      "componentType": 5126,
      "count": 2224,
      "type": "VEC3"
    },
    {
      "bufferView": 1,
      "componentType": 5125,
      "count": 6282,
      "type": "SCALAR"
    }
  ],
  "asset": {
    "version": "2.0"
  },
  "bufferViews": [
    {
      "buffer": 0,
      "byteLength": 71168,
      "byteStride": 32,
      "target": 34962
    },
    {
      "buffer": 0,
      "byteLength": 25128,
      "byteOffset": 71168,
      "target": 34963
    }
  ],
  "buffers": [
    {
      "byteLength": 96296,
      "uri": "shoulder.bin"
    }
  ],
  "materials": [
    {
      "doubleSided": true,
      "name": "XID_Generic_059CBAF3F6594719B074CDC464BCD5E0_shader",
      "pbrMetallicRoughness": {
        "baseColorFactor": [
          1.0,
          0.0,
          0.0,
          1.0
        ],
        "metallicFactor": 0.5818179845809937,
        "roughnessFactor": 0.5
      }
    }
  ],
  "meshes": [
    {
      "name": "Solid1",
      "primitives": [
        {
          "attributes": {
            "NORMAL": 1,
            "POSITION": 0
          },
          "indices": 2,
          "material": 0,
          "mode": 4
        }
      ]
    }
  ],
  "nodes": [
    {
      "matrix": [
        0.01,
        0.0,
        0.0,
        0.0,
        0.0,
        0.01,
        0.0,
        0.0,
        0.0,
        0.0,
        0.01,
        0.0,
        0.0,
        0.0,
        0.0,
        1.0
      ],
      "mesh": 0,
      "name": "Solid1"
    }
  ],
  "scenes": [
    {
      "nodes": [
        0
      ]
    }
  ]
}
